<svg xmlns="http://www.w3.org/2000/svg" width="1700" height="1120" viewBox="0 0 1700 1120"><defs><filter id="shadow" x="-30%" y="-30%" width="160%" height="160%"><feDropShadow dx="0" dy="16" stdDeviation="20" flood-color="#1E2726" flood-opacity=".09"/></filter><marker id="arrow" markerWidth="8" markerHeight="8" refX="7" refY="4" orient="auto"><path d="M0,0 L8,4 L0,8 Z" fill="context-stroke"/></marker><pattern id="grain" width="80" height="80" patternUnits="userSpaceOnUse"><circle cx="8" cy="14" r=".7" fill="#1E2726" opacity=".08"/><circle cx="54" cy="35" r=".6" fill="#1E2726" opacity=".06"/><circle cx="31" cy="68" r=".5" fill="#1E2726" opacity=".07"/></pattern></defs><rect x="0" y="0" width="1700" height="1120" rx="0" fill="#F4F0E6" stroke="none" stroke-width="1"/><rect width="1700" height="1120" fill="url(#grain)"/><circle cx="1590" cy="95" r="45" fill="#2F6F68"/><circle cx="1545" cy="118" r="20" fill="#C86A3B"/><text x="70" y="70" font-family="JetBrains Mono, monospace" font-size="12" font-weight="700" fill="#245651" text-anchor="start">TRUSTLINE / ARCHITECTURE</text><text x="70" y="125" font-family="Newsreader, Georgia, serif" font-size="48" font-weight="600" fill="#1E2726" text-anchor="start">Repayment happens outside the bot</text><text x="72" y="160" font-family="Geist Sans, Arial, sans-serif" font-size="17" font-weight="400" fill="#5F6966" text-anchor="start">Repayment lifecycle</text><rect x="3" y="205" width="184" height="58" rx="18" fill="#2F6F68" stroke="#D8D1C3" stroke-width="1"/><text x="95" y="240" font-family="Geist Sans, Arial, sans-serif" font-size="13" font-weight="650" fill="#FFFCF5" text-anchor="middle">Worker</text><path d="M95 263 L95 1010" stroke="#D8D1C3" stroke-width="2" stroke-dasharray="6 8"/><rect x="305" y="205" width="184" height="58" rx="18" fill="#FFFCF5" stroke="#D8D1C3" stroke-width="1"/><text x="397" y="240" font-family="Geist Sans, Arial, sans-serif" font-size="13" font-weight="650" fill="#1E2726" text-anchor="middle">PostgreSQL</text><path d="M397 263 L397 1010" stroke="#D8D1C3" stroke-width="2" stroke-dasharray="6 8"/><rect x="607" y="205" width="184" height="58" rx="18" fill="#FFFCF5" stroke="#D8D1C3" stroke-width="1"/><text x="699" y="240" font-family="Geist Sans, Arial, sans-serif" font-size="13" font-weight="650" fill="#1E2726" text-anchor="middle">Bank rail</text><path d="M699 263 L699 1010" stroke="#D8D1C3" stroke-width="2" stroke-dasharray="6 8"/><rect x="909" y="205" width="184" height="58" rx="18" fill="#FFFCF5" stroke="#D8D1C3" stroke-width="1"/><text x="1001" y="240" font-family="Geist Sans, Arial, sans-serif" font-size="13" font-weight="650" fill="#1E2726" text-anchor="middle">State machine</text><path d="M1001 263 L1001 1010" stroke="#D8D1C3" stroke-width="2" stroke-dasharray="6 8"/><rect x="1211" y="205" width="184" height="58" rx="18" fill="#FFFCF5" stroke="#D8D1C3" stroke-width="1"/><text x="1303" y="240" font-family="Geist Sans, Arial, sans-serif" font-size="13" font-weight="650" fill="#1E2726" text-anchor="middle">Risk engine</text><path d="M1303 263 L1303 1010" stroke="#D8D1C3" stroke-width="2" stroke-dasharray="6 8"/><rect x="1513" y="205" width="184" height="58" rx="18" fill="#FFFCF5" stroke="#D8D1C3" stroke-width="1"/><text x="1605" y="240" font-family="Geist Sans, Arial, sans-serif" font-size="13" font-weight="650" fill="#1E2726" text-anchor="middle">Audit</text><path d="M1605 263 L1605 1010" stroke="#D8D1C3" stroke-width="2" stroke-dasharray="6 8"/><path d="M95 300 L397 300" stroke="#2F6F68" stroke-width="2.2"  marker-end="url(#arrow)"/><rect x="96" y="279" width="300" height="31" rx="10" fill="#F4F0E6" stroke="none" stroke-width="1"/><text x="246" y="299" font-family="JetBrains Mono, monospace" font-size="11" font-weight="600" fill="#1E2726" text-anchor="middle">01  poll due schedules</text><path d="M95 352 L699 352" stroke="#2F6F68" stroke-width="2.2"  marker-end="url(#arrow)"/><rect x="247" y="331" width="300" height="31" rx="10" fill="#F4F0E6" stroke="none" stroke-width="1"/><text x="397" y="351" font-family="JetBrains Mono, monospace" font-size="11" font-weight="600" fill="#1E2726" text-anchor="middle">02  execute mandate pull</text><path d="M699 404 L95 404" stroke="#C86A3B" stroke-width="2.2" stroke-dasharray="7 6" marker-end="url(#arrow)"/><rect x="247" y="383" width="300" height="31" rx="10" fill="#F4F0E6" stroke="none" stroke-width="1"/><text x="397" y="403" font-family="JetBrains Mono, monospace" font-size="11" font-weight="600" fill="#1E2726" text-anchor="middle">03  settled or failed</text><path d="M95 456 L397 456" stroke="#2F6F68" stroke-width="2.2"  marker-end="url(#arrow)"/><rect x="96" y="435" width="300" height="31" rx="10" fill="#F4F0E6" stroke="none" stroke-width="1"/><text x="246" y="455" font-family="JetBrains Mono, monospace" font-size="11" font-weight="600" fill="#1E2726" text-anchor="middle">04  write repayment outcome</text><path d="M95 508 L1303 508" stroke="#2F6F68" stroke-width="2.2"  marker-end="url(#arrow)"/><rect x="549" y="487" width="300" height="31" rx="10" fill="#F4F0E6" stroke="none" stroke-width="1"/><text x="699" y="507" font-family="JetBrains Mono, monospace" font-size="11" font-weight="600" fill="#1E2726" text-anchor="middle">05  recalculate evidence</text><path d="M1303 560 L397 560" stroke="#2F6F68" stroke-width="2.2"  marker-end="url(#arrow)"/><rect x="700" y="539" width="300" height="31" rx="10" fill="#F4F0E6" stroke="none" stroke-width="1"/><text x="850" y="559" font-family="JetBrains Mono, monospace" font-size="11" font-weight="600" fill="#1E2726" text-anchor="middle">06  asymmetric limit update</text><path d="M95 612 L1001 612" stroke="#A94442" stroke-width="2.2"  marker-end="url(#arrow)"/><rect x="398" y="591" width="300" height="31" rx="10" fill="#F4F0E6" stroke="none" stroke-width="1"/><text x="548" y="611" font-family="JetBrains Mono, monospace" font-size="11" font-weight="600" fill="#1E2726" text-anchor="middle">07  freeze on failure</text><path d="M1001 664 L397 664" stroke="#A94442" stroke-width="2.2"  marker-end="url(#arrow)"/><rect x="549" y="643" width="300" height="31" rx="10" fill="#F4F0E6" stroke="none" stroke-width="1"/><text x="699" y="663" font-family="JetBrains Mono, monospace" font-size="11" font-weight="600" fill="#1E2726" text-anchor="middle">08  state = FROZEN</text><path d="M95 716 L397 716" stroke="#A94442" stroke-width="2.2"  marker-end="url(#arrow)"/><rect x="96" y="695" width="300" height="31" rx="10" fill="#F4F0E6" stroke="none" stroke-width="1"/><text x="246" y="715" font-family="JetBrains Mono, monospace" font-size="11" font-weight="600" fill="#1E2726" text-anchor="middle">09  create escalation</text><path d="M95 768 L1605 768" stroke="#2F6F68" stroke-width="2.2"  marker-end="url(#arrow)"/><rect x="700" y="747" width="300" height="31" rx="10" fill="#F4F0E6" stroke="none" stroke-width="1"/><text x="850" y="767" font-family="JetBrains Mono, monospace" font-size="11" font-weight="600" fill="#1E2726" text-anchor="middle">10  append outcome + state hash</text><rect x="65" y="1025" width="1570" height="45" rx="22" fill="#1E2726" stroke="none" stroke-width="1"/><text x="850" y="1053" font-family="JetBrains Mono, monospace" font-size="13" font-weight="600" fill="#F4F0E6" text-anchor="middle">SUCCESS BUILDS TRUST SLOWLY · FAILURE FREEZES AUTHORITY IMMEDIATELY</text><text x="70" y="1085" font-family="JetBrains Mono, monospace" font-size="11" font-weight="600" fill="#5F6966" text-anchor="start">Autonomous Agent Credit Infrastructure</text><text x="1630" y="1085" font-family="JetBrains Mono, monospace" font-size="11" font-weight="500" fill="#5F6966" text-anchor="end">Deterministic controls · Tamper-evident evidence</text></svg>